{"title":"The.Exorcist.III.1990.1080p.BluRay.x264.DTS-FGT","uid":12654103,"size":9487462595,"categoryP":"video","categoryS":"hd___movies","magnet":"?xt=urn:btih:8fece433162b934d6ec234f60a7d7ebdb99b3bd6&amp;dn=The.Exorcist.III.1990.1080p.BluRay.x264.DTS-FGT&amp;tr=udp%3A%2F%2Ftracker.leechers-paradise.org%3A6969&amp;tr=udp%3A%2F%2Fzer0day.ch%3A1337&amp;tr=udp%3A%2F%2Fopen.demonii.com%3A1337&amp;tr=udp%3A%2F%2Ftracker.coppersurfer.tk%3A6969&amp;tr=udp%3A%2F%2Fexodus.desync.com%3A6969","seeders":0,"leechers":0,"uploader":null,"files":3,"time":1446197727,"description":"Video\r\nID                                       : 1\r\nFormat                                   : AVC\r\nFormat/Info                              : Advanced Video Codec\r\nFormat profile                           :   \r\nFormat settings, CABAC                   : Yes\r\nFormat settings, ReFrames                : 4 frames\r\nCodec ID                                 : V_MPEG4/ISO/AVC\r\nDuration                                 : 1h 49mn\r\nBit rate                                 : 10 000 Kbps\r\nWidth                                    : 1 920 pixels\r\nHeight                                   : 1 080 pixels\r\nDisplay aspect ratio                     : 16:9\r\nFrame rate mode                          : Constant\r\nFrame rate                               : 23.976 fps\r\nColor space                              : YUV\r\nChroma subsampling                       : 4:2:0\r\nBit depth                                : 8 bits\r\nScan type                                : Progressive\r\nBits/(Pixel*Frame)                       : 0.201\r\nStream size                              : 7.50 GiB (85%)\r\nWriting library                          : x264 core 130 r2273 b3065e6\r\nEncoding settings                        : cabac=1 / ref=3 / deblock=1:0:0 / analyse=0x3:0x113 / me=hex / subme=7 / psy=1 / psy_rd=1.00:0.00 / mixed_ref=1 / me_range=16 / chroma_me=1 / trellis=1 / 8x8dct=1 / cqm=0 / deadzone=21,11 / fast_pskip=1 / chroma_qp_offset=-2 / threads=12 / lookahead_threads=2 / sliced_threads=0 / nr=0 / decimate=1 / interlaced=0 / bluray_compat=0 / constrained_intra=0 / bframes=3 / b_pyramid=2 / b_adapt=1 / b_bias=0 / direct=1 / weightb=1 / open_gop=0 / weightp=2 / keyint=240 / keyint_min=24 / scenecut=40 / intra_refresh=0 / rc_lookahead=40 / rc=abr / mbtree=1 / bitrate=10000 / ratetol=1.0 / qcomp=0.60 / qpmin=0 / qpmax=69 / qpstep=4 / vbv_maxrate=62500 / vbv_bufsize=78125 / nal_hrd=none / ip_ratio=1.40 / aq=1:1.00\r\nLanguage                                 : English\r\nDefault                                  : Yes\r\nForced                                   : No\r\nColor range                              : Limited\r\nColor primaries                          : BT.709\r\nTransfer characteristics                 : BT.709\r\nMatrix coefficients                      : BT.709\r\n\r\nAudio\r\nID                                       : 2\r\nFormat                                   : DTS\r\nFormat/Info                              : Digital Theater Systems\r\nMode                                     : 16\r\nFormat settings, Endianness              : Big\r\nCodec ID                                 : A_DTS\r\nDuration                                 : 1h 49mn\r\nBit rate mode                            : Constant\r\nBit rate                                 : 1 509 Kbps\r\nChannel(s)                               : 6 channels\r\nChannel positions                        : Front: L C R, Side: L R, LFE\r\nSampling rate                            : 48.0 KHz\r\nBit depth                                : 16 bits\r\nCompression mode                         : Lossy\r\nStream size                              : 1.16 GiB (13%)\r\nLanguage                                 : English\r\nDefault                                  : Yes\r\nForced                                   : No\r\n\r\nText #1\r\nID                                       : 3\r\nFormat                                   : PGS\r\nMuxing mode                              : zlib\r\nCodec ID                                 : S_HDMV/PGS\r\nCodec ID/Info                            : Picture based subtitle format used on BDs/HD-DVDs\r\nLanguage                                 : English\r\nDefault                                  : No\r\nForced                                   : No","torrent":{"xt":"urn:btih:8fece433162b934d6ec234f60a7d7ebdb99b3bd6","amp;dn":"The.Exorcist.III.1990.1080p.BluRay.x264.DTS-FGT","amp;tr":["udp%3A%2F%2Ftracker.leechers-paradise.org%3A6969","udp%3A%2F%2Fzer0day.ch%3A1337","udp%3A%2F%2Fopen.demonii.com%3A1337","udp%3A%2F%2Ftracker.coppersurfer.tk%3A6969","udp%3A%2F%2Fexodus.desync.com%3A6969"],"infoHash":"8fece433162b934d6ec234f60a7d7ebdb99b3bd6","infoHashBuffer":{"type":"Buffer","data":[143,236,228,51,22,43,147,77,110,194,52,246,10,125,126,189,185,155,59,214]},"announce":[],"urlList":[]}}